<svg width="22" height="17" viewBox="0 0 22 17" fill="none" xmlns="http://www.w3.org/2000/svg">
<path fill-rule="evenodd" clip-rule="evenodd" d="M10.0225 0.950714C10.2296 0.933403 10.4375 0.973818 10.6231 1.06747C10.8086 1.16113 10.9646 1.30437 11.0737 1.48129C11.1828 1.65821 11.2408 1.8619 11.2412 2.06976L11.2412 2.07112V14.8211L11.2412 14.8225C11.2408 15.0303 11.1828 15.234 11.0737 15.411C10.9646 15.5879 10.8086 15.7311 10.6231 15.8248C10.4375 15.9184 10.2296 15.9588 10.0225 15.9415C9.81536 15.9242 9.61706 15.8499 9.44962 15.7267C9.43916 15.719 9.42891 15.7111 9.41887 15.7028L5.13578 12.1961C5.13513 12.1961 5.13447 12.1961 5.13382 12.1961C5.13289 12.1961 5.13196 12.1961 5.13102 12.1961H1.86618C1.56781 12.1961 1.28166 12.0776 1.07069 11.8666C0.859707 11.6556 0.74118 11.3695 0.74118 11.0711V5.82112C0.74118 5.52276 0.859707 5.23661 1.07069 5.02563C1.28166 4.81465 1.56781 4.69612 1.86618 4.69612H5.1358L9.41887 1.18941C9.42891 1.18119 9.43916 1.17323 9.44962 1.16554C9.61706 1.04238 9.81535 0.968024 10.0225 0.950714ZM9.74118 2.86414L6.0851 5.85752C5.82169 6.0779 5.48868 6.19789 5.14517 6.19612H2.24118V10.6961H5.12853C5.47381 10.6942 5.80918 10.8117 6.07777 11.0288C6.079 11.0297 6.08023 11.0307 6.08146 11.0318L9.74118 14.0281V2.86414Z" fill="#E1E1E6"/>
<path fill-rule="evenodd" clip-rule="evenodd" d="M13.9001 4.77819C14.2689 4.58979 14.7207 4.73611 14.9091 5.10499C15.4234 6.11197 15.7412 7.20971 15.7412 8.44612C15.7412 9.67022 15.4098 10.7911 14.9113 11.7829C14.7253 12.153 14.2745 12.3023 13.9044 12.1163C13.5343 11.9302 13.385 11.4794 13.5711 11.1093C13.9857 10.2843 14.2412 9.39327 14.2412 8.44612C14.2412 7.48129 13.9965 6.6159 13.5733 5.78725C13.3849 5.41836 13.5312 4.96659 13.9001 4.77819Z" fill="#E1E1E6"/>
<path fill-rule="evenodd" clip-rule="evenodd" d="M16.1131 2.54841C16.4708 2.33959 16.9301 2.46029 17.1389 2.81801C18.1229 4.50367 18.7412 6.03065 18.7412 8.44612C18.7412 10.8652 18.0961 12.4075 17.1416 14.0696C16.9353 14.4288 16.4769 14.5528 16.1177 14.3465C15.7585 14.1402 15.6345 13.6818 15.8408 13.3226C16.7125 11.8047 17.2412 10.5214 17.2412 8.44612C17.2412 6.36722 16.7344 5.10045 15.8435 3.57424C15.6346 3.21652 15.7553 2.75724 16.1131 2.54841Z" fill="#E1E1E6"/>
<path fill-rule="evenodd" clip-rule="evenodd" d="M18.3377 0.313932C18.6868 0.09107 19.1505 0.193447 19.3734 0.542597C20.84 2.84026 21.7412 5.06093 21.7412 8.44612C21.7412 11.8278 20.8422 14.0976 19.3694 16.3558C19.1431 16.7028 18.6784 16.8006 18.3315 16.5743C17.9845 16.3481 17.8867 15.8834 18.113 15.5364C19.4527 13.4822 20.2412 11.4928 20.2412 8.44612C20.2412 5.40288 19.4549 3.45823 18.109 1.34965C17.8861 1.0005 17.9885 0.536793 18.3377 0.313932Z" fill="#E1E1E6"/>
</svg>
