<svg width="25" height="25" viewBox="0 0 25 25" fill="none" xmlns="http://www.w3.org/2000/svg">
<path fill-rule="evenodd" clip-rule="evenodd" d="M2.71085 3.85694C3.00374 3.56404 3.47862 3.56404 3.77151 3.85694L20.2715 20.3569C20.5644 20.6498 20.5644 21.1247 20.2715 21.4176C19.9786 21.7105 19.5037 21.7105 19.2108 21.4176L2.71085 4.9176C2.41796 4.6247 2.41796 4.14983 2.71085 3.85694Z" fill="#E1E1E6"/>
<path d="M10.7412 7.05539V8.63977C10.7413 8.68935 10.761 8.73688 10.796 8.77196L11.921 9.89696C11.9472 9.92318 11.9806 9.94105 12.0169 9.94831C12.0533 9.95558 12.091 9.9519 12.1252 9.93776C12.1595 9.92361 12.1888 9.89963 12.2094 9.86884C12.2301 9.83805 12.2411 9.80183 12.2412 9.76477V6.28899C12.2433 6.08148 12.1892 5.87728 12.0846 5.69804C11.98 5.51879 11.8289 5.37118 11.6473 5.27086C11.4601 5.17009 11.2481 5.12465 11.036 5.13984C10.8239 5.15503 10.6206 5.23022 10.4496 5.35664C10.4389 5.36409 10.4286 5.37207 10.4187 5.38055L8.92149 6.60633C8.90127 6.62294 8.88474 6.64359 8.87298 6.66697C8.86122 6.69035 8.85448 6.71593 8.8532 6.74207C8.85192 6.76821 8.85613 6.79432 8.86555 6.81874C8.87497 6.84315 8.88939 6.86533 8.9079 6.88383L9.70712 7.68352C9.74006 7.71646 9.78409 7.73595 9.83062 7.73821C9.87716 7.74046 9.92286 7.72531 9.95884 7.69571L10.7412 7.05539Z" fill="#E1E1E6"/>
<path d="M10.7412 18.2191L7.08165 15.2229C6.81298 15.0047 6.47713 14.8861 6.13102 14.8873H3.24118V10.3873H5.61868C5.65575 10.3872 5.69196 10.3762 5.72275 10.3555C5.75354 10.3349 5.77752 10.3056 5.79167 10.2713C5.80581 10.2371 5.80949 10.1994 5.80223 10.163C5.79496 10.1267 5.77709 10.0933 5.75087 10.0671L4.62587 8.94211C4.59079 8.90707 4.54326 8.88735 4.49368 8.88727H2.86618C2.56781 8.88727 2.28166 9.00579 2.07069 9.21677C1.85971 9.42775 1.74118 9.7139 1.74118 10.0123V15.2623C1.74118 15.5606 1.85971 15.8468 2.07069 16.0578C2.28166 16.2687 2.56781 16.3873 2.86618 16.3873H6.13618L10.4187 19.8935C10.4286 19.902 10.4389 19.91 10.4496 19.9174C10.6227 20.0455 10.829 20.1211 11.0438 20.1352C11.2587 20.1492 11.4731 20.1011 11.6613 19.9966C11.8393 19.8953 11.9869 19.7482 12.0889 19.5706C12.1908 19.3929 12.2434 19.1913 12.2412 18.9865V16.6348C12.2411 16.5852 12.2214 16.5377 12.1863 16.5026L11.0613 15.3776C11.0351 15.3514 11.0018 15.3335 10.9654 15.3262C10.9291 15.319 10.8914 15.3226 10.8571 15.3368C10.8229 15.3509 10.7936 15.3749 10.7729 15.4057C10.7523 15.4365 10.7412 15.4727 10.7412 15.5098V18.2191Z" fill="#E1E1E6"/>
<path d="M16.7412 12.6373C16.7412 11.486 16.4688 10.3929 15.9091 9.29649C15.8167 9.12306 15.6598 8.99287 15.4723 8.93393C15.2848 8.87499 15.0816 8.89201 14.9065 8.98133C14.7315 9.07066 14.5984 9.22514 14.5361 9.41154C14.4738 9.59795 14.4871 9.80137 14.5732 9.97805C15.0227 10.8588 15.2412 11.7288 15.2412 12.6373C15.2412 12.7623 15.2363 12.8893 15.2266 13.0184C15.2226 13.0721 15.2303 13.1262 15.2491 13.1767C15.2678 13.2273 15.2973 13.2732 15.3354 13.3113L16.257 14.2334C16.2808 14.2573 16.3107 14.2744 16.3435 14.2828C16.3763 14.2911 16.4107 14.2905 16.4431 14.2809C16.4756 14.2713 16.5048 14.2531 16.5277 14.2282C16.5506 14.2033 16.5664 14.1727 16.5734 14.1396C16.6843 13.6465 16.7406 13.1427 16.7412 12.6373Z" fill="#E1E1E6"/>
<path d="M19.7412 12.6373C19.7412 10.2377 19.1281 8.70492 18.139 7.00946C18.0374 6.84042 17.8733 6.71819 17.6823 6.66924C17.4913 6.62028 17.2886 6.64854 17.1183 6.74789C16.9479 6.84725 16.8236 7.0097 16.7721 7.20008C16.7207 7.39045 16.7463 7.59344 16.8434 7.76508C17.7288 9.28289 18.2412 10.5668 18.2412 12.6373C18.2412 13.7543 18.087 14.6473 17.802 15.4802C17.7791 15.5466 17.7753 15.6181 17.791 15.6866C17.8068 15.755 17.8414 15.8177 17.891 15.8674L18.6771 16.653C18.6988 16.6748 18.7256 16.691 18.755 16.7C18.7844 16.709 18.8156 16.7106 18.8458 16.7048C18.876 16.6989 18.9043 16.6857 18.9282 16.6663C18.9521 16.6469 18.9708 16.6219 18.9827 16.5935C19.4641 15.4441 19.7412 14.2268 19.7412 12.6373Z" fill="#E1E1E6"/>
<path d="M22.7412 12.6373C22.7412 9.15633 21.7948 6.96024 20.3735 4.73367C20.2665 4.56584 20.0972 4.44741 19.9028 4.40442C19.7084 4.36143 19.505 4.39742 19.3371 4.50446C19.1693 4.6115 19.0508 4.78082 19.0079 4.97519C18.9649 5.16955 19.0009 5.37303 19.1079 5.54086C20.389 7.54571 21.2412 9.52008 21.2412 12.6373C21.2412 14.8615 20.824 16.4866 20.1354 17.9341C20.1186 17.9691 20.1131 18.0083 20.1196 18.0465C20.1261 18.0847 20.1442 18.12 20.1715 18.1474L21.0068 18.9837C21.0277 19.0047 21.0533 19.0205 21.0814 19.0297C21.1096 19.0389 21.1395 19.0414 21.1688 19.0368C21.198 19.0322 21.2258 19.0208 21.2498 19.0034C21.2738 18.986 21.2933 18.9632 21.3068 18.9368C22.3137 16.9601 22.7412 15.0279 22.7412 12.6373Z" fill="#E1E1E6"/>
</svg>
